<svg xmlns="http://www.w3.org/2000/svg" xmlns:xlink="http://www.w3.org/1999/xlink" width="500" zoomAndPan="magnify" viewBox="0 0 375 374.999991" height="500" preserveAspectRatio="xMidYMid meet" version="1.0"><path fill="#141414" d="M 336.816406 51.71875 C 321.628906 30.730469 302.449219 18.792969 281.355469 17.210938 C 260.359375 15.617188 239.203125 24.519531 221.808594 42.234375 C 212.859375 51.355469 200.351562 56.585938 187.5 56.585938 C 174.648438 56.585938 162.140625 51.355469 153.1875 42.238281 C 135.789062 24.523438 114.628906 15.5625 93.636719 17.214844 C 72.542969 18.800781 53.367188 30.730469 38.183594 51.71875 C 6.347656 95.625 0.113281 240.835938 102.246094 350.382812 C 108.558594 357.15625 117.886719 359.421875 126.582031 356.277344 C 135.203125 353.171875 140.898438 345.546875 141.4375 336.398438 C 143.160156 307.203125 150.992188 239.308594 186.425781 239.308594 C 186.789062 239.308594 187.144531 239.285156 187.492188 239.246094 C 187.84375 239.285156 188.199219 239.308594 188.5625 239.308594 C 223.996094 239.308594 231.828125 307.203125 233.550781 336.398438 C 234.089844 345.546875 239.785156 353.167969 248.40625 356.277344 C 251 357.210938 253.640625 357.664062 256.246094 357.664062 C 262.386719 357.664062 268.304688 355.132812 272.734375 350.375 C 374.875 240.832031 368.644531 95.621094 336.816406 51.71875 Z M 259.730469 338.21875 C 257.71875 340.386719 255.367188 339.835938 254.449219 339.515625 C 253.5625 339.195312 251.492188 338.15625 251.328125 335.339844 C 246.929688 260.859375 225.230469 221.496094 188.566406 221.496094 C 188.207031 221.496094 187.851562 221.519531 187.5 221.5625 C 187.148438 221.519531 186.792969 221.496094 186.433594 221.496094 C 149.769531 221.496094 128.070312 260.859375 123.671875 335.339844 C 123.507812 338.15625 121.4375 339.195312 120.550781 339.515625 C 119.632812 339.835938 117.28125 340.382812 115.269531 338.21875 C 23.554688 239.851562 22.566406 103.59375 52.601562 62.167969 C 64.617188 45.558594 79.273438 36.160156 94.976562 34.976562 C 110.679688 33.878906 126.839844 40.8125 140.496094 54.726562 C 152.769531 67.226562 169.90625 74.394531 187.5 74.394531 C 205.09375 74.394531 222.234375 67.226562 234.503906 54.726562 C 248.164062 40.8125 264.34375 33.882812 280.023438 34.976562 C 295.722656 36.160156 310.378906 45.558594 322.40625 62.175781 C 352.429688 103.59375 351.445312 239.851562 259.730469 338.21875 Z M 259.730469 338.21875 " fill-opacity="1" fill-rule="nonzero"/><path fill="#6fbe44" d="M 250.835938 116.214844 C 246.277344 114.410156 241.15625 116.628906 239.328125 121.171875 C 237.503906 125.714844 239.699219 130.898438 244.230469 132.753906 C 244.277344 132.769531 246.085938 133.546875 248.632812 135.144531 C 237.601562 151.808594 213.742188 162.5625 187.507812 162.5625 C 161.273438 162.5625 137.414062 151.8125 126.378906 135.152344 C 128.851562 133.601562 130.640625 132.816406 130.773438 132.757812 C 135.316406 130.929688 137.535156 125.769531 135.722656 121.214844 C 133.914062 116.640625 128.734375 114.398438 124.171875 116.214844 C 123.363281 116.535156 104.277344 124.296875 95.199219 144.398438 C 93.175781 148.878906 95.164062 154.160156 99.640625 156.183594 C 100.835938 156.71875 102.082031 156.976562 103.304688 156.976562 C 106.691406 156.976562 109.929688 155.027344 111.421875 151.738281 C 112.042969 150.351562 112.777344 149.105469 113.539062 147.890625 C 128.566406 168.027344 156.421875 180.378906 187.511719 180.378906 C 218.605469 180.378906 246.457031 168.027344 261.484375 147.894531 C 262.238281 149.113281 262.980469 150.359375 263.605469 151.742188 C 265.085938 155.039062 268.328125 156.980469 271.722656 156.980469 C 272.949219 156.980469 274.195312 156.726562 275.382812 156.191406 C 279.863281 154.160156 281.847656 148.886719 279.824219 144.402344 C 270.722656 124.296875 251.640625 116.527344 250.835938 116.214844 Z M 250.835938 116.214844 " fill-opacity="1" fill-rule="nonzero"/></svg>